# xmcd
#
# Track frame offsets: 
#        225
#        20098
#        36019
#        47697
#        63894
#        78786
#        102346
#        112217
#        134190
#        148335
#        160238
#        174333
#        188583
#        206031
#        224056
#        242647
#
# Disc length: 3414 seconds
#
# Revision: 1
# Processed by: cddbd v1.5.2PL0 Copyright (c) Steve Scherf et al.
# Submitted via: ExactAudioCopy v0.99pb3
#
DISCID=f10d5310
DTITLE=The Marcus Pepper Love Revue - Love Is The Answer
DYEAR=1900
DGENRE=Soul
TTITLE0=Little Child Running Wild
TTITLE1=Higher And Higher
TTITLE2=The Beautiful Day
TTITLE3=The Most Beautiful Smile
TTITLE4=Keeper Of The Castle
TTITLE5=Baby Wants To Leave
TTITLE6=Soul Improvisation Pt.1
TTITLE7=Kind Of Good Grace
TTITLE8=Satisfaction Guaranteed
TTITLE9=Band Of Gold
TTITLE10=Treat Her Like A Lady
TTITLE11=(I Know) I'm Losing You
TTITLE12=Do Your Thing
TTITLE13=I Get The Sweetest Feeling
TTITLE14=Then Came You
TTITLE15=Signed Sealed Delivered (I'm Yours)
EXTD=
EXTT0=
EXTT1=
EXTT2=
EXTT3=
EXTT4=
EXTT5=
EXTT6=
EXTT7=
EXTT8=
EXTT9=
EXTT10=
EXTT11=
EXTT12=
EXTT13=
EXTT14=
EXTT15=
PLAYORDER=
